<svg xmlns="http://www.w3.org/2000/svg" width="19.993" height="14.089" viewBox="0 0 19.993 14.089">
  <path id="Path_2364" data-name="Path 2364" d="M18.993,2.6H5.942a1,1,0,1,1,0-2H18.993a1,1,0,1,1,0,2M1.6,3.2A1.6,1.6,0,1,0,0,1.6,1.6,1.6,0,0,0,1.6,3.2M19.993,7.044a1,1,0,0,0-1-1H5.942a1,1,0,1,0,0,2H18.993a1,1,0,0,0,1-1M1.6,8.644A1.6,1.6,0,1,0,0,7.044a1.6,1.6,0,0,0,1.6,1.6m18.393,3.845a1,1,0,0,0-1-1H5.942a1,1,0,0,0,0,2H18.993a1,1,0,0,0,1-1M1.6,14.089a1.6,1.6,0,1,0-1.6-1.6,1.6,1.6,0,0,0,1.6,1.6" fill="#bebec3"/>
</svg>
