<svg xmlns="http://www.w3.org/2000/svg" width="18" height="18.027" viewBox="0 0 18 18.027">
  <path id="Path_2363" data-name="Path 2363" d="M15.3,0H2.7A2.7,2.7,0,0,0,0,2.7V15.3A2.7,2.7,0,0,0,2.7,18H6.163a.854.854,0,0,0,.135.027A.854.854,0,0,0,6.433,18h5.13a.854.854,0,0,0,.135.027A.854.854,0,0,0,11.833,18H15.3A2.7,2.7,0,0,0,18,15.3V2.7A2.7,2.7,0,0,0,15.3,0M7.2,7.2h3.6v3.6H7.2Zm3.6,9H7.2V12.6h3.6Zm-9-9H5.4v3.6H1.8ZM7.2,1.8h3.6V5.4H7.2Zm5.4,5.4h3.6v3.6H12.6Zm3.6-4.5V5.4H12.6V1.8h2.7a.9.9,0,0,1,.9.9M2.7,1.8H5.4V5.4H1.8V2.7a.9.9,0,0,1,.9-.9M1.8,15.3V12.6H5.4v3.6H2.7a.9.9,0,0,1-.9-.9m13.5.9H12.6V12.6h3.6v2.7a.9.9,0,0,1-.9.9" fill="#004b9e"/>
</svg>
