<svg xmlns="http://www.w3.org/2000/svg" viewBox="0 0 66.972 59.999" width="66.972" height="59.999"><defs><style>.a{fill:#004b9e}</style></defs><path id="icon" class="a" d="m40.726,4.166c-2.325-3.999-7.451-5.355-11.45-3.03-1.256.73-2.3,1.774-3.03,3.03h0L1.129,47.446c-2.316,3.994-.955,9.11,3.039,11.425,1.276.74,2.725,1.129,4.201,1.128h50.236c4.617.004,8.363-3.736,8.367-8.353.001-1.473-.387-2.921-1.125-4.196L40.726,4.166Zm20.5,48.984c-.532.946-1.537,1.526-2.622,1.515H8.369c-1.67.002-3.024-1.35-3.026-3.02,0-.534.14-1.058.408-1.52L30.868,6.843c.841-1.446,2.695-1.937,4.141-1.096.454.264.832.642,1.096,1.096l25.119,43.282c.553.933.553,2.093,0,3.026m-27.846-13.858c1.449.06,2.672-1.065,2.733-2.514l.718-17.2v-.278c-.077-1.845-1.635-3.279-3.48-3.202-1.845.077-3.279,1.635-3.203,3.48l.718,17.2c.062,1.362,1.152,2.452,2.514,2.514m.109,2.918c-2.085,0-3.775,1.691-3.774,3.776,0,2.085,1.691,3.775,3.776,3.774,2.084,0,3.774-1.69,3.774-3.775s-1.69-3.775-3.775-3.775h-.001"/></svg>