<svg xmlns="http://www.w3.org/2000/svg" viewBox="0 0 66.972 59.999" width="66.972" height="59.999"><defs><style>.a{fill:none;isolation:isolate}.b{fill:#fff}.c{fill:#9fccff}</style></defs><path class="b" d="m7.439,0h35.621C45.518,0,47.512,2.014,47.512,4.5v51c0,2.485-1.993,4.5-4.453,4.5H7.439c-2.459,0-4.453-2.015-4.453-4.5V4.5C2.986,2.014,4.98,0,7.439,0Z"/><g id="CSV"><g class="a"><path class="c" d="m19.015,38.243c0-5.49,3.495-8.708,7.659-8.708,2.092,0,3.762,1.013,4.83,2.138l-1.715,2.115c-.846-.81-1.803-1.395-3.049-1.395-2.493,0-4.364,2.16-4.364,5.737,0,3.623,1.692,5.805,4.297,5.805,1.425,0,2.515-.675,3.406-1.642l1.737,2.07c-1.358,1.597-3.117,2.452-5.254,2.452-4.163,0-7.547-3.015-7.547-8.572Z"/><path class="c" d="m34.91,44.386l1.893-2.296c1.18,1.103,2.738,1.845,4.185,1.845,1.715,0,2.628-.742,2.628-1.912,0-1.237-1.002-1.62-2.472-2.25l-2.204-.946c-1.669-.697-3.339-2.047-3.339-4.477,0-2.723,2.359-4.816,5.699-4.816,1.914,0,3.829.766,5.165,2.138l-1.669,2.093c-1.047-.878-2.137-1.373-3.496-1.373-1.447,0-2.36.653-2.36,1.755,0,1.193,1.158,1.62,2.56,2.183l2.16.923c2.004.833,3.317,2.115,3.317,4.522,0,2.723-2.249,5.04-6.056,5.04-2.204,0-4.409-.877-6.012-2.429Z"/><path class="c" d="m49.982,29.828h3.451l2.182,8.123c.512,1.845.868,3.51,1.38,5.377h.112c.534-1.867.891-3.533,1.403-5.377l2.137-8.123h3.339l-5.032,16.673h-3.94l-5.032-16.673Z"/></g></g></svg>