<svg xmlns="http://www.w3.org/2000/svg" viewBox="0 0 32 32" width="32" height="32"><defs><style>.a{fill:#fff}</style></defs><path class="a" d="m27.015,5.95c-2.1-1-4.3-1.7-6.6-2-.3.5-.6,1.1-.8,1.7-2.4-.4-4.9-.4-7.3,0-.2-.6-.5-1.1-.8-1.7-2.3.3-4.5,1-6.6,2C.715,12.15-.385,18.15.115,24.05H.115c2.4,1.7,5.1,3.1,8.1,4,.7-.9,1.2-1.8,1.7-2.8-.9-.4-1.9-.8-2.7-1.3.2-.1.5-.2.7-.5,5.1,2.4,11.1,2.4,16.2,0,.2.2.5.4.7.5-.9.5-1.8,1-2.7,1.3.5,1,1.1,1.9,1.7,2.8,2.9-.9,5.7-2.3,8.1-4.1h0c.5-6.8-1.3-12.7-4.9-18Zm-16.4,14.4c-1.6,0-2.9-1.4-2.9-3.2s1.3-3.2,2.9-3.2,2.9,1.4,2.9,3.2-1.3,3.2-2.9,3.2Zm10.6,0c-1.6,0-2.9-1.4-2.9-3.2s1.3-3.2,2.9-3.2,2.9,1.4,2.9,3.2-1.3,3.2-2.9,3.2Z"/></svg>