<svg xmlns="http://www.w3.org/2000/svg" viewBox="0 0 20 20" width="20" height="20"><defs><style>.a{fill:#707070}</style></defs><path class="a" d="m17.75,20H2.25c-.69,0-1.25-.56-1.25-1.25h0c0-.69.56-1.25,1.25-1.25h15.5c.69,0,1.25.56,1.25,1.25h0c0,.69-.56,1.25-1.25,1.25Zm-1.429-11.706c-.488-.488-1.279-.488-1.768,0l-3.085,3.085V1.25C11.469.559,10.909,0,10.219,0s-1.25.56-1.25,1.25v10.129l-3.522-3.523c-.488-.488-1.279-.488-1.768,0s-.488,1.279,0,1.768l5.656,5.657c.114.115.251.206.403.27.151.063.314.097.481.097s.33-.034.481-.097c.152-.063.289-.155.404-.27l5.218-5.218c.488-.488.488-1.279,0-1.768Z"/></svg>