<svg id="_404_A" data-name="404_A" xmlns="http://www.w3.org/2000/svg" width="195.892" height="200" viewBox="0 0 195.892 200">
  <rect id="Rectangle_2874" data-name="Rectangle 2874" width="114.93" height="13.026" transform="translate(77.856 128.056)" fill="#9fccff"/>
  <rect id="Rectangle_2875" data-name="Rectangle 2875" width="56.613" height="50.701" transform="translate(123.547 77.756)" fill="#fff"/>
  <path id="Path_936" data-name="Path 936" d="M192.786,125.05h-10.22a7.471,7.471,0,0,0,.4-2.605l.1-4.108h0V77.756a2.952,2.952,0,0,0-3.006-3.006H123.447a2.952,2.952,0,0,0-3.006,3.006v40.581a2.952,2.952,0,0,0,3.006,3.006h53.507v1.1a2.76,2.76,0,0,1-2.705,2.705H77.856a2.952,2.952,0,0,0-3.006,3.006v13.026a2.952,2.952,0,0,0,3.006,3.006h101.9v49.6a3.006,3.006,0,0,0,6.012,0v-49.6h7.114a2.952,2.952,0,0,0,3.006-3.006V128.156A3.189,3.189,0,0,0,192.786,125.05Zm-66.232-9.719V80.762h50.6v34.569Zm63.226,22.745H80.862v-7.014H189.78ZM151.3,107.014a2.01,2.01,0,0,0-2,2v.7a2,2,0,1,0,4.008,0v-.7A2.01,2.01,0,0,0,151.3,107.014Zm0-22.645h0a9.131,9.131,0,0,0-9.118,9.018,2.01,2.01,0,0,0,2,2h0a2.01,2.01,0,0,0,2-2,5.132,5.132,0,0,1,5.11-5.11h0a5.132,5.132,0,0,1,5.11,5.11,5.032,5.032,0,0,1-3.106,4.709,6.337,6.337,0,0,0-4.008,5.812,2.01,2.01,0,0,0,2,2h0a2.01,2.01,0,0,0,2-2,2.261,2.261,0,0,1,1.5-2.1,9.064,9.064,0,0,0,5.611-8.417A9.265,9.265,0,0,0,151.3,84.369Z" fill="#004b9e"/>
  <path id="Path_937" data-name="Path 937" d="M87.475,184.469V171.844l-24.449-1.3a4.448,4.448,0,0,1,4.409,4.409v19.739H89.88a2.8,2.8,0,0,0,2.806-2.806,3,3,0,0,0-.6-1.8Zm35.872-76.052c-3.607,1.9-8.016,6.713-20.04,7.715a23.915,23.915,0,0,1-10.922-2V89.78c0-21.543-16.834-39.679-38.377-40.281A39.443,39.443,0,0,0,13.427,87.876V151a19.671,19.671,0,0,0,19.639,19.639H100.5a4.448,4.448,0,0,1,4.409,4.409V194.79h22.445a2.8,2.8,0,0,0,2.806-2.806,3,3,0,0,0-.6-1.8l-4.609-5.611V170.441a19.928,19.928,0,0,0-19.94-19.94H92.485V128.056a42.012,42.012,0,0,0,9.92,1.2c14.228,0,17.635-5.511,21.042-5.611s4.81,2.705,9.018,2.4,6.112-5.812,3.908-7.315c0,0,5.01,3.707,7.315-.7C146.794,111.924,136.273,101.7,123.347,108.417Z" fill="#fff"/>
  <path id="Path_938" data-name="Path 938" d="M45.691,142.385a8.724,8.724,0,0,0-8.717-8.717H12.725a8.724,8.724,0,0,0-8.717,8.717v16.633H45.691ZM10.421,170.541v13.026H56.413V170.541Z" fill="#9fccff"/>
  <path id="Path_939" data-name="Path 939" d="M144.389,107.214c-4.309-4.309-12.926-7.515-22.846-2.3-.9.5-1.9,1.1-2.806,1.7a29.735,29.735,0,0,1-15.631,5.511,18.193,18.193,0,0,1-6.613-.8V89.78c0-23.747-18.938-43.687-42.285-44.289A43.383,43.383,0,0,0,9.519,87.675v41.283A12.867,12.867,0,0,0,0,141.283v16.633a4.02,4.02,0,0,0,4.008,4.008h8.216a30.018,30.018,0,0,0,3.206,4.709h-5.01a4.02,4.02,0,0,0-4.008,4.008v13.026a4.02,4.02,0,0,0,4.008,4.008h1.9v8.317a4.008,4.008,0,1,0,8.016,0v-8.317H45.992v8.317a4.008,4.008,0,1,0,8.016,0v-8.317h2.4a4.02,4.02,0,0,0,4.008-4.008v-9.018h2.505a.431.431,0,0,1,.4.4V194.79a4.02,4.02,0,0,0,4.008,4.008H89.78a6.821,6.821,0,0,0,6.814-6.814,6.64,6.64,0,0,0-1.5-4.309l-3.707-4.509v-8.517H100.5a.431.431,0,0,1,.4.4V194.79a4.02,4.02,0,0,0,4.008,4.008h22.445a6.821,6.821,0,0,0,6.814-6.814,6.64,6.64,0,0,0-1.5-4.309l-3.707-4.509V170.541a23.947,23.947,0,0,0-23.948-23.948H96.293V132.966a54.825,54.825,0,0,0,5.912.4c10.721,0,16.032-2.906,19.339-4.709a9.56,9.56,0,0,1,1.8-.9,5.17,5.17,0,0,1,2,.7,13.14,13.14,0,0,0,7.214,1.7,9.383,9.383,0,0,0,7.816-5.812,7.735,7.735,0,0,0,1.5-.2,7.886,7.886,0,0,0,5.11-4.108C149.2,115.932,148.1,110.922,144.389,107.214ZM8.016,153.908V141.283a4.7,4.7,0,0,1,4.709-4.709H36.974a4.7,4.7,0,0,1,4.709,4.709v12.625ZM52.4,179.559H14.429v-5.01H52.4v5.01Zm19.038,11.222V174.649H83.567v9.92a3.848,3.848,0,0,0,.9,2.505l3.006,3.707Zm68.637-74.649h0a3.106,3.106,0,0,1-1.3-.6c-.1-.1-.2-.1-.3-.2a3.89,3.89,0,0,0-5.411,1.1,4.063,4.063,0,0,0,.1,4.709,1.506,1.506,0,0,1-1,.9,5.23,5.23,0,0,1-3.006-.8,11.146,11.146,0,0,0-5.812-1.6,11.717,11.717,0,0,0-5.411,1.9c-2.906,1.6-6.814,3.707-15.431,3.707-13.828,0-21.443-6.914-21.844-7.214a3.968,3.968,0,1,0-5.511,5.711c.3.3,4.91,4.609,13.427,7.315V150.5a4.02,4.02,0,0,0,4.008,4.008H105.21a15.908,15.908,0,0,1,15.932,15.932v14.128a3.848,3.848,0,0,0,.9,2.505l3.006,3.707H109.118V175.05a8.468,8.468,0,0,0-8.417-8.417H33.066a15.843,15.843,0,0,1-11.122-4.609H45.591a4.02,4.02,0,0,0,4.008-4.008V141.283a12.743,12.743,0,0,0-12.725-12.725H17.435V87.876A35.589,35.589,0,0,1,53.908,53.307c19.038.5,34.469,16.834,34.469,36.273v17.635c-.5-.4-.8-.6-.8-.6a3.984,3.984,0,0,0-5.11,6.112c.4.3,9.92,8.317,21.142,7.315,10.421-.9,15.832-4.409,19.439-6.814.8-.5,1.5-1,2.1-1.3,6.112-3.206,11.022-1.5,13.427.9C139.88,114.028,140.481,115.431,140.08,116.132ZM84.77,91.082V85.671a3.006,3.006,0,0,0-6.012,0v5.411a2.952,2.952,0,0,0,3.006,3.006A3.015,3.015,0,0,0,84.77,91.082ZM43.387,14.629a2.481,2.481,0,0,0,2.505-2.505,7.114,7.114,0,1,1,14.228,0,7.011,7.011,0,0,1-4.309,6.513,8.373,8.373,0,0,0-5.21,7.615,2.481,2.481,0,0,0,2.505,2.505h0a2.481,2.481,0,0,0,2.505-2.505,3.259,3.259,0,0,1,2.1-3.106A12.237,12.237,0,0,0,65.23,11.924,12.37,12.37,0,0,0,52.906,0h0A12.1,12.1,0,0,0,40.782,12.124,2.709,2.709,0,0,0,43.387,14.629Zm9.519,16.132A2.481,2.481,0,0,0,50.4,33.267v.9a2.505,2.505,0,1,0,5.01,0v-.9A2.481,2.481,0,0,0,52.906,30.762Z" fill="#004b9e"/>
</svg>
