<svg id="icon_exchange" xmlns="http://www.w3.org/2000/svg" width="32" height="32" viewBox="0 0 32 32">
  <rect id="Rectangle_2878" data-name="Rectangle 2878" width="28.1" height="2.7" transform="translate(1.9 27.1)" fill="#80c0ff"/>
  <path id="Path_1135" data-name="Path 1135" d="M0,32H32V29.3H0ZM16,0,0,5.6V8.2H32V5.6Z" fill="#004b9e"/>
  <path id="Path_1136" data-name="Path 1136" d="M13.3,25.9h5.2V23.7H13.3Zm-9-14.2H9.5V9.5H4.3Zm0,14.2H9.5V23.7H4.3ZM22.5,9.5v2.2h5.2V9.5Zm-9.2,2.2h5.2V9.5H13.3Zm9.2,14.2h5.2V23.7H22.5Z" fill="#80c0ff"/>
  <path id="Path_1137" data-name="Path 1137" d="M5.4,22.3H8.2V12.8H5.4Zm18.2-9.5v9.5h2.8V12.8H23.6Zm-9.2,9.5h2.8V12.8H14.4v9.5Z" fill="#c4e0ff"/>
</svg>
