<svg xmlns="http://www.w3.org/2000/svg" viewBox="0 0 32 32" width="32" height="32"><defs><style>.a{fill:#fff}.b{fill:#1877f2}</style></defs><path class="b" d="m32,16C32,7.2,24.8,0,16,0S0,7.2,0,16c0,8,5.92,14.56,13.44,15.84v-11.2h-4v-4.64h4v-3.52c0-4,2.4-6.24,6.08-6.24,1.76,0,3.52.32,3.52.32v4h-2.08c-1.92,0-2.56,1.28-2.56,2.56v2.88h4.48l-.64,4.64h-3.68v11.2c7.52-1.28,13.44-7.84,13.44-15.84Z"/><path class="a" d="m22.24,20.64l.64-4.64h-4.48v-3.04c0-1.28.64-2.56,2.56-2.56h2.08v-3.84s-1.76-.32-3.52-.32c-3.68,0-6.08,2.24-6.08,6.24v3.52h-4v4.64h4v11.2c.8.16,1.76.16,2.56.16s1.76,0,2.56-.16v-11.2h3.68Z"/></svg>