<svg id="favorite_icon" xmlns="http://www.w3.org/2000/svg" width="17.999" height="20" viewBox="0 0 17.999 20">
  <path id="Path_872" 
    data-name="Path 872" 
    d="M1.077,20a1.03,1.03,0,0,1-.51-.134A1.128,1.128,0,0,1,0,18.876V2.791A2.731,2.731,0,0,1,2.661,0H15.6A2.46,2.46,0,0,1,18,2.514V7.779A1.1,1.1,0,0,1,16.923,8.9H14.81v9.971a1.127,1.127,0,0,1-.567.99,1.039,1.039,0,0,1-1.109-.056L7.406,15.788,1.676,19.81a1.042,1.042,0,0,1-.6.19M12.67,2.251H2.661a.527.527,0,0,0-.509.54V16.765L6.8,13.5a1.039,1.039,0,0,1,1.2,0l4.651,3.265Zm2.658,0a.256.256,0,0,0-.244.26V6.654h1.038V2.514a.254.254,0,0,0-.243-.263Z" 
    fill="#bebec3"/>
</svg>
