<svg xmlns="http://www.w3.org/2000/svg" viewBox="0 0 32 32" width="32" height="32"><defs><style>.a{fill:#34a853}.a,.b,.c,.d{fill-rule:evenodd}.b{fill:#4285f4}.c{fill:#ea4335}.d{fill:#fbbc05}</style></defs><path id="Shape" class="b" d="m31.68,16.32c0-1.12-.16-2.24-.32-3.2h-15.04v6.24h8.64c-.32,1.92-1.44,3.68-3.2,4.8v4h5.12c3.04-2.88,4.8-6.88,4.8-11.84h0Z"/><path id="Shape-2" class="a" d="m16.32,32c4.32,0,8-1.44,10.56-3.84l-5.12-4c-1.44.96-3.2,1.6-5.44,1.6-4.16,0-7.68-2.88-8.96-6.56H2.08v4.16c2.56,5.12,8,8.64,14.24,8.64h0Z"/><path id="Shape-3" class="d" d="m7.36,19.04c-.32-.96-.48-1.92-.48-3.04s.16-2.08.48-3.04v-4.16H2.08c-1.12,2.24-1.76,4.64-1.76,7.2s.64,4.96,1.76,7.2l5.28-4.16h0Z"/><path id="Shape-4" class="c" d="m16.32,6.4c2.4,0,4.48.8,6.08,2.4l4.64-4.64C24.32,1.6,20.64,0,16.32,0,10.08,0,4.64,3.52,2.08,8.8l5.28,4.16c1.28-3.84,4.8-6.56,8.96-6.56h0Z"/></svg>