<svg id="icon_mail" xmlns="http://www.w3.org/2000/svg" width="157" height="159" viewBox="0 0 157 159">
  <path id="Path_1132" data-name="Path 1132" d="M153.5,54.167,78.45,3.5,3.5,54.167V155.5H152.4Z" transform="translate(0)" fill="#9fccff"/>
  <path id="Path_1133" data-name="Path 1133" d="M140.091,63.17V22.9H16.909V63.17L3.5,54.176V155.4h150V54.176" transform="translate(0 0)" fill="#fff"/>
  <g id="Component_456_1" data-name="Component 456 – 1" transform="translate(0)">
    <path id="Path_1134" data-name="Path 1134" d="M34.522,43.573h62.34a2.3,2.3,0,1,0,0-4.6H34.522a2.3,2.3,0,1,0,0,4.6Zm90.257,24.485a2.263,2.263,0,0,0-2.3-2.3H34.522a2.3,2.3,0,1,0,0,4.6h87.856A2.349,2.349,0,0,0,124.779,68.057ZM34.522,56.964h87.856a2.3,2.3,0,1,0,0-4.6H34.522a2.3,2.3,0,1,0,0,4.6Zm122.378-3.6c-.1,0-.1-.1,0,0a6.88,6.88,0,0,0-.3-.8.1.1,0,0,0-.1-.1c-.1-.2-.3-.4-.4-.6l-.1-.1a2.652,2.652,0,0,0-.6-.5h0l-11.908-7.995V22.886a3.543,3.543,0,0,0-3.5-3.5h-31.82L80.451.6a3.475,3.475,0,0,0-3.9,0L48.731,19.388H16.911a3.543,3.543,0,0,0-3.5,3.5V43.273L1.5,51.268h0a2.652,2.652,0,0,0-.6.5l-.1.1a2.09,2.09,0,0,0-.4.6.1.1,0,0,1-.1.1,4.869,4.869,0,0,0-.3.7v.1c0,.2,0,.5,0,.8H0V155.5A3.543,3.543,0,0,0,3.5,159h150a3.543,3.543,0,0,0,3.5-3.5V54.166A2.481,2.481,0,0,1,156.9,53.366Zm-13.409-1.8,3.7,2.5-3.7,2.5ZM78.45,7.7,95.761,19.388H61.139ZM20.413,26.283H136.587V61.261L110.27,79.05H46.73L20.413,61.361ZM66.542,92.542,53.534,83.747h49.832L90.358,92.542Zm17.011,4.6-5,3.4-5-3.4ZM13.409,51.568v5l-3.7-2.5ZM148.995,152H7V60.662l69.544,46.97a3.475,3.475,0,0,0,3.9,0L150,60.662Z" transform="translate(0)" fill="#084671"/>
  </g>
</svg>
