<svg xmlns="http://www.w3.org/2000/svg" viewBox="0 0 20 20" width="20" height="20">
    <defs>
        <style>.a{fill:#fff}</style>
    </defs>
    <path class="a" d="m9.744,14.238l3.656,2.883-3.656,2.879v-1.583c-2.176-.059-4.215-.933-5.761-2.471-1.602-1.596-2.484-3.719-2.483-5.975,0-2.257.883-4.378,2.486-5.973.222-.222.519-.344.834-.344s.613.123.837.346c.223.222.345.518.345.833s-.124.611-.348.833c-1.148,1.14-1.785,2.658-1.795,4.273-.01,1.626.616,3.159,1.764,4.316,1.102,1.111,2.559,1.748,4.12,1.806v-1.823Zm6.275-10.179c-1.547-1.541-3.587-2.416-5.767-2.476V0l-3.655,2.884,3.655,2.883v-1.824c1.561.058,3.017.695,4.12,1.806,1.148,1.157,1.774,2.69,1.764,4.317-.01,1.615-.647,3.133-1.795,4.273-.224.222-.348.518-.348.833,0,.314.122.611.345.833.231.231.534.345.837.345s.604-.114.834-.343c1.605-1.594,2.488-3.716,2.49-5.972s-.879-4.379-2.48-5.975Z"/>
</svg>