<svg xmlns="http://www.w3.org/2000/svg" viewBox="0 0 20 20" width="20" height="20"><defs><style>.a{fill:#bebec3}</style></defs><path class="a" d="m18.75,3.75h-8.97c-.676-2.088-2.916-3.232-5.003-2.557-1.213.393-2.164,1.344-2.557,2.557h-.97c-.69,0-1.25.56-1.25,1.25s.56,1.25,1.25,1.25h.97c.676,2.088,2.916,3.232,5.003,2.557,1.213-.393,2.164-1.344,2.557-2.557h8.97c.69,0,1.25-.56,1.25-1.25s-.56-1.25-1.25-1.25m-12.562,3.231c-.062.006-.123.019-.188.019-.095-.003-.19-.012-.284-.029-1.097-.154-1.862-1.168-1.708-2.265.154-1.097,1.168-1.862,2.265-1.708,1.097.154,1.862,1.168,1.708,2.265-.129.918-.87,1.629-1.793,1.718m12.562,6.769h-.97c-.676-2.088-2.916-3.232-5.003-2.557-1.213.393-2.164,1.344-2.557,2.557H1.25c-.69,0-1.25.56-1.25,1.25s.56,1.25,1.25,1.25h8.97c.676,2.088,2.916,3.232,5.003,2.557,1.213-.393,2.164-1.344,2.557-2.557h.97c.69,0,1.25-.56,1.25-1.25s-.56-1.25-1.25-1.25m-4.59,3.234c-.054,0-.1.016-.16.016-.081-.003-.161-.011-.241-.024-1.097-.132-1.878-1.129-1.746-2.225.132-1.097,1.129-1.878,2.225-1.746s1.878,1.129,1.746,2.225c-.114.944-.877,1.678-1.825,1.754"/></svg>