<svg xmlns="http://www.w3.org/2000/svg" xmlns:xlink="http://www.w3.org/1999/xlink" width="20" height="20" viewBox="0 0 20 20">
  <defs>
    <clipPath id="clip-path">
      <rect id="Rectangle_2877" data-name="Rectangle 2877" width="20" height="20" fill="none"/>
    </clipPath>
  </defs>
  <g id="Group_4569" data-name="Group 4569" clip-path="url(#clip-path)">
    <path id="Path_2355" data-name="Path 2355" d="M20,10A10,10,0,1,1,10,0,10,10,0,0,1,20,10" fill="#4cc764"/>
    <path id="Path_2356" data-name="Path 2356" d="M66.431,69.418c0-2.987-2.995-5.418-6.676-5.418s-6.676,2.431-6.676,5.418c0,2.678,2.375,4.921,5.584,5.345.217.047.513.143.588.329a1.372,1.372,0,0,1,.022.6s-.078.471-.1.572c-.029.169-.134.66.578.36A21.557,21.557,0,0,0,65,72.751h0a4.82,4.82,0,0,0,1.431-3.334" transform="translate(-49.76 -60)" fill="#fff"/>
    <path id="Path_2357" data-name="Path 2357" d="M201.125,130.754a.128.128,0,0,0,.127-.127v-.474a.128.128,0,0,0-.127-.127H199.85v-.492h1.275a.128.128,0,0,0,.127-.128v-.473a.128.128,0,0,0-.127-.127H199.85v-.492h1.275a.127.127,0,0,0,.127-.127v-.473a.128.128,0,0,0-.127-.128h-1.876a.127.127,0,0,0-.127.128v0h0v2.909h0v0a.127.127,0,0,0,.127.127h1.876Z" transform="translate(-186.676 -119.61)" fill="#4cc764"/>
    <path id="Path_2358" data-name="Path 2358" d="M90.12,130.754a.127.127,0,0,0,.127-.127v-.474a.128.128,0,0,0-.127-.127H88.845v-2.313a.128.128,0,0,0-.127-.128h-.473a.127.127,0,0,0-.128.128v2.911h0v0a.127.127,0,0,0,.128.127H90.12Z" transform="translate(-82.609 -119.61)" fill="#4cc764"/>
    <path id="Path_2359" data-name="Path 2359" d="M129.218,127.585h-.473a.128.128,0,0,0-.128.127v2.914a.128.128,0,0,0,.128.127h.473a.127.127,0,0,0,.127-.127v-2.914a.127.127,0,0,0-.127-.127" transform="translate(-120.578 -119.61)" fill="#4cc764"/>
    <path id="Path_2360" data-name="Path 2360" d="M150.2,127.585h-.473a.127.127,0,0,0-.128.127v1.731l-1.333-1.8-.01-.013h0l-.008-.008,0,0-.007-.006,0,0-.007,0,0,0-.007,0,0,0-.007,0,0,0-.008,0h0l-.008,0h-.494a.127.127,0,0,0-.127.127v2.914a.127.127,0,0,0,.127.127h.474a.127.127,0,0,0,.127-.127V128.9l1.335,1.8a.129.129,0,0,0,.033.032h0l.008,0,0,0,.006,0,.006,0,0,0,.009,0h0a.134.134,0,0,0,.033,0h.471a.127.127,0,0,0,.127-.127v-2.914a.127.127,0,0,0-.127-.127" transform="translate(-138.332 -119.61)" fill="#4cc764"/>
  </g>
</svg>
