<svg xmlns="http://www.w3.org/2000/svg" width="20" height="18" viewBox="0 0 20 18">
  <path id="Path_969" data-name="Path 969" d="M18.75,2.75H9.78a3.973,3.973,0,0,0-7.56,0H1.25a1.25,1.25,0,0,0,0,2.5h.97a3.973,3.973,0,0,0,7.56,0h8.97a1.25,1.25,0,0,0,0-2.5M6.188,5.981C6.126,5.987,6.065,6,6,6a1.911,1.911,0,0,1-.284-.029,2.006,2.006,0,1,1,.472.01M18.75,12.75h-.97a3.973,3.973,0,0,0-7.56,0H1.25a1.25,1.25,0,0,0,0,2.5h8.97a3.973,3.973,0,0,0,7.56,0h.97a1.25,1.25,0,0,0,0-2.5m-4.59,3.234c-.054,0-.1.016-.16.016a1.928,1.928,0,0,1-.241-.024,2,2,0,1,1,.4.008" fill="#004b9e"/>
</svg>
