<svg xmlns="http://www.w3.org/2000/svg" viewBox="0 0 20 20" width="20" height="20"><defs><style>.a{fill:#004b9e}.b{fill:#9fccff}.c{fill:#c4e0ff}</style></defs><path class="c" d="m15.722,5.458c.043-.486-.105-.985-.459-1.369l-3.158-3.053c-.496-.505-1.261-.633-1.895-.317-.158.079-.301.186-.421.316l-.58.58-3.844,3.844h10.356Z"/><path class="b" d="m5.366,5.458H1.788L6.21,1.036c.12-.13.263-.237.421-.316.669-.31,1.459-.185,2,.316l.578.578-3.844,3.844Zm13.581,4.526h-5.579c-.04-.002-.08-.003-.121,0-.548.033-.965.504-.932,1.052v2.842c-.003.041-.003.081,0,.122.034.548.505.965,1.053.931h5.579c.565-.038,1.014-.487,1.053-1.052v-2.964c-.034-.548-.505-.965-1.053-.931Z"/><path class="a" d="m18.947,7.037c0-.872-.707-1.579-1.579-1.579H1.683C.754,5.458,0,6.212,0,7.141v10.557c.008.98.809,1.767,1.789,1.759h15.369c.01,0,.02,0,.03,0,.98-.008,1.767-.809,1.759-1.789v-2.737h-5.579c-.548.034-1.019-.383-1.053-.931-.003-.041-.003-.081,0-.122v-2.842c-.033-.548.384-1.019.932-1.052.04-.002.081-.002.121,0h5.579v-.248h0v-2.699Z"/></svg>