<svg height="166.339" viewBox="0 0 200.071 166.339" width="200.071" xmlns="http://www.w3.org/2000/svg"><path d="m93.483 25.439c4.1-1.8 8.8-1.1 12.3 1.8l55.3 45.7c1.8 1.5 2.7 3.8 2.3 6.1l-.5 3.1-139.8-20.2.5-3.1c.3-2.3 1.8-4.2 4-5.2zm-82.6 120.6 12.2-84.3 139.9 20.3-12.2 84.3z" fill="#c4e0ff"/><path d="m38.652 29.987h102.688v125.285h-102.688z" fill="#f2f2f2" transform="matrix(.06134469 -.99811664 .99811664 .06134469 -7.981 176.774)"/><path d="m.583 30.639 15.2 12c.7.5 1.7.4 2.2-.3s.4-1.7-.3-2.2l-15.2-12c-.7-.5-1.7-.4-2.2.3-.5.7-.3 1.7.3 2.2zm186.7 35.9-4 .6c-.9.1-1.4.9-1.3 1.8s.9 1.4 1.8 1.3l4-.6c.9-.1 1.5-.9 1.3-1.8-.1-.8-.9-1.4-1.8-1.3zm-6.4-50.6-2.8 2.9c-.6.6-.6 1.6 0 2.2s1.6.6 2.2 0l2.8-2.9c.6-.6.6-1.6 0-2.2s-1.6-.6-2.2 0m-141.6 41.3 105.5 6.5c.2 0 .4-.2.4-.4v-.3c0-.2-.1-.4-.4-.4l-105.5-6.5c-.2 0-.4.1-.4.4v.3c0 .2.2.3.4.4zm-.7 10.6 105.5 6.5c.2 0 .4-.1.4-.4v-.3c0-.2-.1-.4-.4-.4l-105.4-6.5c-.2 0-.4.2-.4.4v.3c-.1.2.1.4.3.4m-.6 10.6 105.5 6.5c.2 0 .4-.1.4-.4v-.3c0-.2-.2-.4-.4-.4l-105.5-6.4c-.2 0-.4.2-.4.4v.3c0 .1.2.3.4.3m-.7 10.6 105.5 6.5c.2 0 .4-.2.4-.4v-.3c0-.2-.1-.4-.4-.4l-105.4-6.4c-.2 0-.4.2-.4.4v.3c-.1.1.1.3.3.3m-.6 10.6 105.5 6.5c.2 0 .4-.2.4-.4v-.3c0-.2-.2-.4-.4-.4l-105.5-6.4c-.2 0-.4.2-.4.4v.3c0 .1.1.3.4.3zm-.7 10.7 105.5 6.5c.2 0 .4-.2.4-.4v-.3c0-.2-.1-.4-.4-.4l-105.5-6.5c-.2 0-.4.1-.4.4v.3c0 .2.2.3.4.4m-.6 10.6 105.5 6.5c.2 0 .4-.1.4-.4v-.3c0-.2-.1-.4-.4-.4l-105.5-6.5c-.2 0-.4.2-.4.4v.3c0 .2.1.4.4.4m-.7 10.6 105.5 6.5c.2 0 .4-.1.4-.4v-.3c0-.2-.2-.4-.4-.4l-105.5-6.5c-.2 0-.4.1-.4.4v.3c0 .2.2.4.4.4z" fill="#ccc"/><path d="m21.183 15.739 2.4 3.3c.5.7 1.5.8 2.2.2.6-.5.8-1.4.3-2.1l-2.4-3.3c-.5-.7-1.5-.8-2.2-.2-.6.5-.7 1.5-.3 2.1m-5-6.7 2.4 3.3c.5.7 1.5.8 2.2.2.6-.5.8-1.4.3-2.1l-2.4-3.3c-.5-.7-1.5-.8-2.2-.2-.7.5-.8 1.4-.3 2.1m141 1.4-2.7 5.9c-.4.8 0 1.7.8 2.1s1.7 0 2.1-.8l2.7-5.9c.3-.8 0-1.7-.8-2.1-.9-.3-1.8 0-2.1.8m17.4 23.4-3.3 2.4c-.7.5-.9 1.5-.4 2.2s1.5.9 2.2.4c0 0 .1 0 .1-.1l3.3-2.4c.7-.5.9-1.5.4-2.2-.5-.6-1.5-.8-2.3-.3q.1 0 0 0m-23.8 132.5 12.2-84.3-76 32zm-63.8-52.3-63.9-52.2-12.2 84.2z" fill="#9fccff"/><path d="m56.583 1.739 1 8.8c.1.9.9 1.5 1.8 1.3.8-.1 1.4-.9 1.3-1.7l-1-8.8c-.1-.9-.9-1.5-1.8-1.3-.8.2-1.4.9-1.3 1.7m-53.6 49.3 3.7 1.6c.8.3 1.7 0 2.1-.8.3-.8 0-1.7-.8-2.1l-3.8-1.6c-.8-.3-1.7 0-2.1.8-.3.8.1 1.8.9 2.1zm195-3.7-11.4 3.5c-.8.3-1.3 1.1-1 2s1.1 1.3 2 1l11.4-3.5c.8-.3 1.3-1.1 1-2s-1.2-1.2-2-1zm-106.5 65.1c-2.3-2.1-5.6-2.5-8.4-1.2l-71.1 33.2c-.6.3-1 .8-1.1 1.4v.2l139.9 20.2.1-.4c.1-.4-.1-.7-.4-1z" fill="#004b9e"/></svg>