<svg xmlns="http://www.w3.org/2000/svg" viewBox="0 0 507.887 46.487" width="507.887" height="46.487"><defs><style>.a{fill:#005bac}</style></defs><g><path d="m369.182,12.272c-1.602,0-2.9,1.298-2.9,2.9v.03c-.428-.372-.879-.717-1.353-1.033-1.534-1.022-3.361-1.54-5.431-1.54-1.679,0-3.238.342-4.636,1.018-1.381.667-2.585,1.588-3.579,2.737-.985,1.138-1.755,2.482-2.288,3.992-.529,1.497-.798,3.096-.798,4.754,0,1.579.27,3.12.802,4.578.534,1.467,1.303,2.785,2.284,3.919.992,1.147,2.193,2.074,3.569,2.753,1.4.693,2.949,1.044,4.605,1.044.876,0,1.75-.111,2.598-.331.848-.219,1.662-.547,2.419-.973.485-.273,1.022-.628,1.394-.941,0,1.641-.159,2.192-.472,2.84-.323.667-.734,1.204-1.259,1.641-.527.439-1.164.776-1.893,1-.771.237-1.598.357-2.457.357-1.375,0-2.667-.279-3.84-.83-1.149-.54-2.062-1.328-2.791-2.41l-.819-1.215-4.062,3.584.643.939c1.13,1.649,2.566,2.961,4.27,3.897,1.717.943,3.937,1.421,6.599,1.421,1.638,0,3.207-.228,4.663-.678,1.487-.46,2.807-1.149,3.924-2.048,1.135-.915,2.045-2.055,2.705-3.391.665-1.346,1.002-2.909,1.002-4.646V15.172c0-1.602-1.298-2.9-2.9-2.9Zm-3.314,15.886c-.109.396-.307.796-.588,1.19-.335.469-.758.896-1.257,1.27-.51.382-1.074.694-1.676.925-.566.218-1.162.328-1.773.328-.864,0-1.637-.169-2.364-.516-.745-.355-1.4-.836-1.947-1.429-.552-.598-.998-1.314-1.323-2.13-.323-.807-.487-1.677-.487-2.584,0-.848.144-1.705.429-2.547.283-.837.687-1.592,1.2-2.245.494-.629,1.104-1.142,1.813-1.525.685-.37,1.453-.549,2.348-.549.568,0,1.141.1,1.703.299.577.204,1.123.497,1.622.871.516.387.987.847,1.4,1.365.356.448.658.949.9,1.49v5.787Zm-100.942-19.398v28.416h-6.297v-19.081l-7.727,13.784h-3.616l-7.77-13.802v19.099h-6.297V8.76c0-2.046,1.659-3.705,3.705-3.705,1.388,0,2.595.764,3.23,1.893h.001s.018.032.018.032c.004.008.008.015.012.022l8.889,15.944,8.699-15.539c.54-1.377,1.878-2.354,3.447-2.354,2.046,0,3.705,1.659,3.705,3.705ZM104.281,26.453l5.693,3.112-.486,1.143c-.567,1.334-1.37,2.525-2.387,3.542-.984.984-2.113,1.827-3.355,2.505-1.228.67-2.544,1.186-3.912,1.536-1.371.35-2.731.528-4.044.528-2.362,0-4.565-.528-6.547-1.568-1.939-1.017-3.639-2.363-5.053-4.001-1.409-1.63-2.516-3.506-3.29-5.576-.775-2.069-1.167-4.212-1.167-6.368,0-2.029.36-4.075,1.071-6.081.715-2.019,1.78-3.857,3.164-5.464,1.395-1.619,3.121-2.941,5.13-3.93,2.035-1.001,4.36-1.508,6.912-1.508,3.042,0,5.707.709,7.921,2.109,2.012,1.273,3.699,3.07,4.652,4.906.341.656.525,1.115.525,1.766,0,1.786-1.447,3.233-3.233,3.233-1.237,0-2.348-.672-2.854-1.716-.506-1.044-2.635-3.984-7.188-3.984-1.497,0-2.829.308-3.959.917-1.165.627-2.156,1.456-2.945,2.462-.805,1.026-1.417,2.199-1.821,3.488-.412,1.315-.621,2.653-.621,3.979,0,1.479.246,2.9.732,4.225.486,1.327,1.169,2.515,2.031,3.534.848,1.003,1.863,1.81,3.017,2.399,1.138.581,2.347.864,3.698.864.713,0,1.46-.091,2.22-.272.736-.174,1.451-.459,2.125-.847.685-.393,1.338-.898,1.941-1.501.571-.571,1.049-1.274,1.419-2.09l.611-1.343Zm23.386-13.348v5.617c-2.89,0-4.23.493-5.419,1.246-1.098.696-1.872,1.625-2.361,2.836v14.373h-6.214V15.255c0-1.647,1.336-2.983,2.983-2.983s2.983,1.336,2.983,2.983v.137c.278-.263.569-.511.873-.742,1.407-1.071,3.242-1.811,4.842-1.811,1.834,0,2.314.265,2.314.265Zm290.755,0v5.617c-2.89,0-4.23.493-5.419,1.246-1.098.696-1.872,1.625-2.361,2.836v14.373h-6.214V15.255c0-1.647,1.336-2.983,2.983-2.983s2.983,1.336,2.983,2.983v.137c.278-.263.569-.511.873-.742,1.407-1.071,3.242-1.811,4.842-1.811,1.834,0,2.314.265,2.314.265Zm-237.318,7.308c-.564-1.492-1.361-2.829-2.369-3.974-1.018-1.157-2.239-2.089-3.629-2.768-1.414-.691-2.982-1.041-4.661-1.041-1.882,0-3.628.472-5.19,1.402-.466.278-.985.645-1.409.985-.078-1.528-1.338-2.743-2.885-2.743-1.598,0-2.893,1.295-2.893,2.893,0,.054.005.108.008.161h-.008v30.664h6.214v-10.87c.395.336.817.65,1.264.939,1.57,1.015,3.399,1.53,5.437,1.53,1.629,0,3.145-.345,4.507-1.025,1.337-.668,2.504-1.583,3.468-2.718.955-1.125,1.702-2.461,2.222-3.974.513-1.495.773-3.104.773-4.784,0-1.61-.285-3.183-.849-4.676Zm-5.875,7.239c-.28.816-.686,1.553-1.207,2.189-.514.629-1.115,1.118-1.836,1.495-.689.361-1.448.536-2.321.536-.586,0-1.156-.104-1.696-.309-.573-.218-1.121-.521-1.63-.903-.508-.381-.965-.838-1.36-1.361-.352-.466-.654-.97-.898-1.502v-5.751c.108-.43.313-.839.624-1.244.371-.483.816-.906,1.323-1.255.53-.365,1.105-.664,1.706-.889.556-.207,1.095-.312,1.6-.312.862,0,1.635.169,2.363.516.741.354,1.394.839,1.939,1.441.554.612,1.001,1.343,1.329,2.174.325.825.49,1.704.49,2.612,0,.874-.144,1.736-.427,2.563Zm22.951,2.281l1.665,5.549c-1.927,1.131-4.768,1.985-6.799,1.985-1.606,0-3.023-.457-4.212-1.358-1.299-.982-1.958-2.476-1.958-4.439v-13.24h-.953c-1.499,0-2.714-1.215-2.714-2.714s1.215-2.714,2.714-2.714h.953v-4.823c0-1.716,1.391-3.107,3.107-3.107s3.107,1.391,3.107,3.107v4.823h4.842v5.428h-4.842v12.074c0,.932.803,1.033,1.155,1.038,1.637.024,3.934-1.609,3.934-1.609Zm23.597-13.543c-1.065-1.142-2.367-2.063-3.87-2.738-1.514-.679-3.18-1.023-4.954-1.023s-3.438.345-4.939,1.025c-1.486.674-2.779,1.595-3.844,2.736-1.056,1.134-1.894,2.466-2.489,3.961-.596,1.498-.898,3.106-.898,4.78,0,1.644.294,3.235.873,4.727.581,1.499,1.412,2.835,2.473,3.972,1.065,1.142,2.358,2.063,3.845,2.736,1.501.68,3.176,1.025,4.98,1.025s3.478-.345,4.98-1.025c1.483-.672,2.781-1.591,3.859-2.729,1.076-1.137,1.917-2.476,2.5-3.979.579-1.495.873-3.085.873-4.727,0-1.673-.302-3.281-.898-4.78-.595-1.494-1.432-2.827-2.489-3.961Zm-3.384,11.408c-.314.824-.752,1.551-1.303,2.159-.546.603-1.184,1.08-1.897,1.42-.7.334-1.433.496-2.24.496s-1.54-.162-2.24-.496c-.713-.339-1.344-.81-1.875-1.398-.539-.596-.971-1.31-1.285-2.125-.314-.813-.473-1.715-.473-2.682s.16-1.88.475-2.709c.315-.829.75-1.559,1.291-2.169.533-.602,1.167-1.085,1.881-1.437.697-.343,1.425-.509,2.226-.509.807,0,1.54.162,2.24.496.712.339,1.35.817,1.896,1.419.551.609.99,1.335,1.303,2.16.315.829.475,1.726.475,2.667,0,.969-.16,1.881-.475,2.709Zm72.623-5.192c0-3.11-.934-5.581-2.777-7.344-1.827-1.747-4.361-2.632-7.531-2.632-3.033,0-6.332,1.109-9.105,3.024-.632.436-1.118,1.251-1.118,2.127,0,1.428,1.157,2.585,2.585,2.585.537,0,.969-.14,1.448-.444,2.088-1.325,3.959-2.071,5.858-2.071,1.476,0,2.557.369,3.305,1.127.749.76,1.115,1.817,1.12,3.232-.428-.109-.876-.206-1.343-.29-1.148-.205-2.296-.31-3.413-.31-1.442,0-2.797.185-4.028.55-1.249.37-2.352.892-3.277,1.551-.972.691-1.735,1.541-2.268,2.525-.543,1-.818,2.119-.818,3.324,0,1.148.227,2.226.675,3.204.441.964,1.054,1.817,1.821,2.535.765.717,1.676,1.284,2.708,1.687,1.029.402,2.147.605,3.323.605,1.861,0,3.635-.38,5.274-1.131.807-.369,1.55-.824,2.227-1.362.195.453.476.863.838,1.225.666.666,1.574,1.019,2.628,1.019,1.441,0,3.024-.588,3.024-.588v-5.291h-1.158c0-.013,0-8.857,0-8.857Zm-6.214,6.704c0,.608-1.978,2.976-5.666,2.976-.51,0-2.37-.109-3.192-1.847-.168-.356-.239-.742-.239-1.171,0-.815.355-1.418,1.151-1.955.923-.623,2.178-.939,3.729-.939,1.441,0,2.856.22,4.218.656v2.279Zm58.588-6.704c0-3.11-.934-5.581-2.777-7.344-1.827-1.747-4.361-2.632-7.531-2.632-3.033,0-6.332,1.109-9.105,3.024-.632.436-1.118,1.251-1.118,2.127,0,1.428,1.157,2.585,2.585,2.585.537,0,.969-.14,1.448-.444,2.088-1.325,3.959-2.071,5.858-2.071,1.476,0,2.557.369,3.305,1.127.749.76,1.115,1.817,1.12,3.232-.428-.109-.876-.206-1.343-.29-1.148-.205-2.296-.31-3.413-.31-1.442,0-2.797.185-4.028.55-1.249.37-2.352.892-3.277,1.551-.972.691-1.735,1.541-2.268,2.525-.543,1-.818,2.119-.818,3.324,0,1.148.227,2.226.675,3.204.441.964,1.054,1.817,1.821,2.535.765.717,1.676,1.284,2.708,1.687,1.029.402,2.147.605,3.323.605,1.861,0,3.635-.38,5.274-1.131.807-.369,1.55-.824,2.227-1.362.195.453.476.863.838,1.225.666.666,1.574,1.019,2.628,1.019,1.441,0,3.024-.588,3.024-.588v-5.291h-1.158c0-.013,0-8.857,0-8.857Zm-6.214,6.704c0,.608-1.978,2.976-5.666,2.976-.51,0-2.37-.109-3.192-1.847-.168-.356-.239-.742-.239-1.171,0-.815.355-1.418,1.151-1.955.923-.623,2.178-.939,3.729-.939,1.441,0,2.856.22,4.218.656v2.279Zm-19.401-10.169c.221,1.177.332,2.468.332,3.838v14.198h-6.214v-13.37c0-2.549-.455-3.763-.837-4.332-.289-.43-.825-1.003-2.139-1.003-.582,0-1.177.117-1.769.347-.632.246-1.24.586-1.805,1.01-.554.416-1.047.921-1.466,1.503-.376.522-.67,1.101-.875,1.722v14.125h-6.214V15.218c0-1.627,1.319-2.946,2.946-2.946,1.849,0,2.937,1.591,2.937,2.831v.291c.543-.457,1.138-.868,1.785-1.233,1.802-1.016,3.79-1.532,5.908-1.532,1.455,0,2.708.283,3.724.842,1.022.562,1.852,1.357,2.464,2.36.576.944.987,2.057,1.222,3.309Zm79.442-2.771c-1.05-1.127-2.336-2.04-3.824-2.716-1.501-.68-3.177-1.025-4.98-1.025s-3.477.336-4.986.998c-1.501.659-2.816,1.57-3.908,2.708-1.09,1.136-1.946,2.473-2.543,3.974-.596,1.497-.898,3.106-.898,4.779s.302,3.286.897,4.796c.597,1.515,1.444,2.858,2.517,3.992,1.08,1.142,2.39,2.056,3.894,2.715,1.509.662,3.187.998,4.986.998,8.823,0,11.222-7.59,11.222-7.59l-5.698-1.574s-.896,3.86-5.4,3.86c-.771,0-1.479-.142-2.166-.435-.693-.295-1.322-.71-1.869-1.235-.544-.521-.995-1.158-1.339-1.894-.163-.347-.296-.716-.398-1.106,0,0,17.465.018,17.465,0,.311-1.231.311-2.371.311-2.693,0-1.584-.286-3.138-.85-4.618-.568-1.487-1.386-2.811-2.433-3.936Zm-14.561,5.984c.096-.343.217-.671.363-.983.33-.707.767-1.322,1.297-1.83.525-.503,1.147-.902,1.847-1.184.698-.281,1.455-.424,2.25-.424s1.552.143,2.25.424c.704.285,1.33.68,1.858,1.174.532.498.982,1.119,1.339,1.843.154.313.281.64.382.981h-11.586Zm-228.418-7.166c0,.347-.174.988-.174.988l-9.961,25.845c-.473,1.181-1.248,2.212-2.311,3.079-1.13.92-2.649,1.386-4.517,1.386-1.239,0-3.024-.454-3.024-.454v-5.766l1.481.227c1.401.18,2.151.035,3.089-2.021.299-.656.629-1.526,1.038-2.565l-8.187-19.338s-.284-.826-.284-1.285c0-1.664,1.349-3.014,3.014-3.014,1.255,0,2.329.767,2.783,1.857l5.993,14.901,5.313-14.528c.309-1.279,1.458-2.23,2.832-2.23,1.611,0,2.916,1.306,2.916,2.916Z"/><path class="a" d="m428.789,30.61c-.687-.007-1.352.247-1.845.725v-3.175h-1.524v9.018h1.524v-.665c.426.53,1.061.844,1.741.859,1.524,0,2.899-1.315,2.899-3.407s-1.315-3.355-2.794-3.355Zm-.284,5.297c-.717.007-1.337-.508-1.464-1.218-.075-.261-.112-.53-.097-.807,0-1.367.814-1.89,1.509-1.89.829,0,1.614.657,1.576,1.943,0,.844-.396,1.972-1.524,1.972Zm9.235-5.113l-1.62,5.564-.356,1.205c-.435,1.317-.909,1.817-2.094,1.817-.309.002-.618-.024-.922-.079v-1.317c.135.022.271.033.408.033.237-.002.469-.068.672-.191.179-.126.306-.313.356-.527l-2.311-6.505h1.646l1.435,4.793,1.218-4.76,1.567-.033Zm35.338,5.867c-.052-.004-.099-.034-.125-.079l-3.793-6.209-2.067,7.111c-.012.048-.056.081-.105.079h-3.951c-.008,0-.016,0-.023-.003-.031-.011-.047-.045-.036-.076l4.201-13.3c.015-.049.061-.081.112-.079h1.495c.051.004.098.028.132.066l5.116,7.901,5.116-7.901c.033-.039.081-.063.132-.066h1.495c.049-.002.093.031.105.079l4.201,13.3c.013.079-.007.079-.059.079h-3.951c-.05-.002-.094-.033-.112-.079l-2.061-7.111-3.793,6.209c-.028.046-.077.076-.132.079h-1.896Zm-9.916-6.65c.056.264.082.533.079.803,0,3.812-5.142,6.914-11.503,6.914s-11.509-3.095-11.509-6.914,5.149-6.914,11.509-6.914c4.3,0,8.053,1.422,10.028,3.523h0c.004.017.004.035,0,.053,0,.002,0,.005,0,.007,0,.047-.039.085-.086.085h-4.609c-.015.006-.031.006-.046,0h0c-1.51-1.154-3.367-1.76-5.267-1.719-3.858,0-6.986,2.232-6.986,4.984s3.128,4.984,6.986,4.984c3.22,0,5.933-1.56,6.736-3.681h-6.736c-.6,0-1.086-.486-1.086-1.086s.486-1.086,1.086-1.086h11.345c.039,0,.073.027.079.066h0l-.02-.02Zm33.219-6.087c-6.358,0-11.513,3.093-11.513,6.911s5.155,6.911,11.513,6.911,11.506-3.093,11.506-6.911-5.155-6.911-11.506-6.911Zm0,11.894c-3.863,0-6.986-2.234-6.986-4.983s3.123-4.983,6.986-4.983,6.986,2.226,6.986,4.983-3.13,4.983-6.986,4.983Z"/><path class="a" d="m62.768,19.479h-8.388l7.744-14.056c.471-.856.581-1.844.31-2.782-.272-.939-.893-1.716-1.749-2.187-1.768-.974-3.996-.328-4.969,1.439l-9.688,17.586h-17.376l-4.35-7.897c-.643-1.167-1.871-1.893-3.204-1.893s-2.561.725-3.204,1.893l-4.35,7.897H2.973c-1.639,0-2.973,1.334-2.973,2.973s1.334,2.973,2.973,2.973h7.294l-2.612,4.741c-.973,1.767-.328,3.996,1.439,4.969,1.766.973,3.996.328,4.969-1.439l7.034-12.768,13.038,23.667c.643,1.167,1.871,1.893,3.204,1.893s2.561-.725,3.204-1.893l10.561-19.17h11.664c1.64,0,2.973-1.334,2.973-2.973s-1.334-2.973-2.973-2.973Zm-20.017,5.946l-5.413,9.824-5.412-9.824h10.825Z"/></g></svg>