<svg xmlns="http://www.w3.org/2000/svg" viewBox="0 0 20 20" width="20" height="20"><defs><style>.a{fill:#bebec3}</style></defs><path class="a" d="m16.886,2.153h-4.213v-.514c.005-.898-.717-1.63-1.614-1.639h-2.118c-.897.009-1.619.741-1.614,1.639v.514H3.114c-.9.009-1.623.746-1.614,1.646,0,0,0,0,0,.001v.539c-.004.897.717,1.629,1.614,1.638h.016l.923,12.223c.072,1.005.902,1.788,1.91,1.8h8.074c1.008-.012,1.838-.795,1.91-1.8l.923-12.223h.016c.899-.009,1.621-.743,1.614-1.642v-.535c.007-.899-.715-1.634-1.614-1.643m-8.45-.514c-.002-.279.221-.509.5-.514h2.123c.279.005.502.235.5.514v.514h-3.123v-.514Zm6.4,16.471c-.03.421-.378.75-.8.757H5.963c-.422-.007-.77-.336-.8-.757l-.92-12.137h11.514l-.921,12.137Zm2.55-13.775c.002.279-.221.509-.5.514H3.114c-.279-.005-.502-.235-.5-.514v-.539c-.002-.279.221-.509.5-.514h13.772c.279.005.502.235.5.514v.539Zm-10.123,12.528c.309-.003.557-.255.555-.564v-7.621c.013-.306-.225-.565-.531-.578s-.565.225-.578.531c0,.016,0,.031,0,.047v7.621c-.002.309.246.561.555.564m2.736,0c.309-.003.557-.255.555-.564v-7.621c.013-.306-.225-.565-.531-.578-.306-.013-.565.225-.578.531,0,.016,0,.031,0,.047v7.621c-.002.309.246.561.555.564m2.736,0c.309-.003.557-.255.555-.564v-7.621c.013-.306-.225-.565-.531-.578-.306-.013-.565.225-.578.531,0,.016,0,.031,0,.047v7.621c-.002.309.246.561.555.564"/></svg>