<svg xmlns="http://www.w3.org/2000/svg" xmlns:xlink="http://www.w3.org/1999/xlink" width="160" height="32.412" viewBox="0 0 160 32.412">
  <defs>
    <clipPath id="clip-path">
      <rect id="Rectangle_2655" data-name="Rectangle 2655" width="160" height="32.412" fill="none"/>
    </clipPath>
  </defs>
  <g id="avalanche" transform="translate(-414 -1386)">
    <g id="Group_4342" data-name="Group 4342" transform="translate(414 1386)">
      <path id="Path_2205" data-name="Path 2205" d="M770.727,210.7h1.739l4.867,11.3h-2.3l-1.053-2.585h-4.9L768.062,222h-2.25Zm2.553,6.99-1.739-4.6-1.771,4.6Z" transform="translate(-727.448 -200.148)" fill="#e84142"/>
      <path id="Path_2206" data-name="Path 2206" d="M1038.86,210.7h2.314l3.08,8.538,3.176-8.538h2.171l-4.564,11.3H1043.3Z" transform="translate(-986.817 -200.148)" fill="#e84142"/>
      <path id="Path_2207" data-name="Path 2207" d="M1303.495,210.7h1.74L1310.1,222h-2.3l-1.053-2.585h-4.9L1300.83,222h-2.25Zm2.553,6.99-1.739-4.6-1.771,4.6Z" transform="translate(-1233.526 -200.148)" fill="#e84142"/>
      <path id="Path_2208" data-name="Path 2208" d="M1617.35,210.7h2.011v9.479h4.8V222h-6.814Z" transform="translate(-1536.327 -200.148)" fill="#e84142"/>
      <path id="Path_2209" data-name="Path 2209" d="M1825.995,210.7h1.74L1832.6,222h-2.3l-1.053-2.585h-4.9L1823.33,222h-2.25Zm2.553,6.99-1.739-4.6-1.772,4.6Z" transform="translate(-1729.85 -200.148)" fill="#e84142"/>
      <path id="Path_2210" data-name="Path 2210" d="M2139.85,210.7h2.665l5.473,8.394h.032V210.7h2.01V222h-2.553l-5.586-8.665h-.031V222h-2.011Z" transform="translate(-2032.651 -200.148)" fill="#e84142"/>
      <g id="Group_4341" data-name="Group 4341">
        <g id="Group_4340" data-name="Group 4340" clip-path="url(#clip-path)">
          <path id="Path_2211" data-name="Path 2211" d="M2453.352,207.905a3.337,3.337,0,0,0-1.213-.894,3.189,3.189,0,0,0-1.165-.223,3.887,3.887,0,0,0-1.6.319,3.513,3.513,0,0,0-1.213.862,3.935,3.935,0,0,0-.8,1.277,4.526,4.526,0,0,0-.271,1.58,4.992,4.992,0,0,0,.271,1.676,4.047,4.047,0,0,0,.8,1.325,3.7,3.7,0,0,0,1.213.878,3.888,3.888,0,0,0,1.6.319,2.929,2.929,0,0,0,1.325-.319,3.71,3.71,0,0,0,1.213-1.053l1.659,1.181a4.519,4.519,0,0,1-1.867,1.532,5.819,5.819,0,0,1-2.345.479,6.783,6.783,0,0,1-2.41-.415,5.74,5.74,0,0,1-1.883-1.2,5.637,5.637,0,0,1-1.229-1.867,6.259,6.259,0,0,1-.447-2.41,6.468,6.468,0,0,1,.447-2.458,5.565,5.565,0,0,1,1.229-1.9,5.414,5.414,0,0,1,1.883-1.2,6.559,6.559,0,0,1,2.41-.431,5.355,5.355,0,0,1,2.122.415,4.867,4.867,0,0,1,1.835,1.372Z" transform="translate(-2322.505 -194.701)" fill="#e84142"/>
          <path id="Path_2212" data-name="Path 2212" d="M2738.88,210.7h2.01v4.5h5.282v-4.5h2.011V222h-2.011v-4.979h-5.282V222h-2.01Z" transform="translate(-2601.672 -200.148)" fill="#e84142"/>
          <path id="Path_2213" data-name="Path 2213" d="M3038.7,210.7h7.484v1.819h-5.473V215.3h5.186v1.819h-5.186v3.064h5.761V222H3038.7Z" transform="translate(-2886.472 -200.148)" fill="#e84142"/>
          <path id="Path_2214" data-name="Path 2214" d="M82.7,70A12.7,12.7,0,1,1,70,82.7,12.7,12.7,0,0,1,82.7,70" transform="translate(-66.493 -66.493)" fill="#fff"/>
          <path id="Path_2215" data-name="Path 2215" d="M32.412,16.206A16.206,16.206,0,1,1,16.206,0,16.206,16.206,0,0,1,32.412,16.206m-20.8,6.449H8.469a2.524,2.524,0,0,1-1.186-.127A.8.8,0,0,1,6.92,21.9c-.012-.235.151-.522.478-1.095L15.164,7.12c.33-.581.5-.872.709-.979a.8.8,0,0,1,.725,0c.211.108.378.4.709.979l1.6,2.787.008.014a5.227,5.227,0,0,1,.617,1.272,2.364,2.364,0,0,1,0,1.107,5.246,5.246,0,0,1-.621,1.286L14.827,20.8l-.011.018A5.177,5.177,0,0,1,14.022,22a2.373,2.373,0,0,1-.967.561,5.686,5.686,0,0,1-1.441.092m7.943,0h4.507a2.5,2.5,0,0,0,1.2-.131.8.8,0,0,0,.362-.629c.012-.227-.148-.5-.461-1.043L25.13,20.8l-2.257-3.862-.026-.043c-.317-.536-.477-.807-.683-.912a.793.793,0,0,0-.721,0c-.207.107-.374.39-.7.959L18.489,20.8l-.008.013c-.329.568-.494.852-.482,1.086a.806.806,0,0,0,.362.629,2.545,2.545,0,0,0,1.194.127" fill="#e84142" fill-rule="evenodd"/>
        </g>
      </g>
    </g>
  </g>
</svg>
