<svg xmlns="http://www.w3.org/2000/svg" xmlns:xlink="http://www.w3.org/1999/xlink" width="71.609" height="18" viewBox="0 0 71.609 18">
  <defs>
    <clipPath id="clip-path">
      <rect id="Rectangle_2653" data-name="Rectangle 2653" width="71.609" height="18" transform="translate(15574 1164)" fill="#fff"/>
    </clipPath>
  </defs>
  <g id="Mask_Group_32" data-name="Mask Group 32" transform="translate(-15574 -1164)" clip-path="url(#clip-path)">
    <g id="ethereum-logo-landscape-purple" transform="translate(15574 1164.058)">
      <path id="Path_2238" data-name="Path 2238" d="M425.5,404.7l-5.5,9.137,5.5-2.5Z" transform="translate(-420 -404.7)" fill="#8891b1"/>
      <path id="Path_2239" data-name="Path 2239" d="M425.5,504.8l-5.5,2.5,5.5,3.256Z" transform="translate(-420 -498.163)" fill="#63688e"/>
      <path id="Path_2240" data-name="Path 2240" d="M508.51,413.837,503,404.7v6.637Z" transform="translate(-497.497 -404.7)" fill="#63688e"/>
      <path id="Path_2241" data-name="Path 2241" d="M503,510.555l5.51-3.256L503,504.8Z" transform="translate(-497.497 -498.163)" fill="#464a75"/>
      <path id="Path_2242" data-name="Path 2242" d="M420,558.3l5.5,7.758v-4.509Z" transform="translate(-420 -548.116)" fill="#8891b1"/>
      <path id="Path_2243" data-name="Path 2243" d="M503,561.549v4.509l5.51-7.758Z" transform="translate(-497.497 -548.116)" fill="#63688e"/>
      <g id="Group_4432" data-name="Group 4432" transform="translate(15.117 3.315)">
        <path id="Path_2244" data-name="Path 2244" d="M653.1,522.445a.247.247,0,0,1-.239.239h-4.4a2.221,2.221,0,0,0,2.082,2.069,2.064,2.064,0,0,0,1.817-.942.238.238,0,0,1,.192-.113.213.213,0,0,1,.219.219.2.2,0,0,1-.033.113,2.484,2.484,0,0,1-2.195,1.154,2.748,2.748,0,1,1,2.559-2.738Zm-.477-.212a2.082,2.082,0,0,0-4.164,0Z" transform="translate(-648 -515.39)" fill="#8891b1"/>
        <path id="Path_2245" data-name="Path 2245" d="M763.584,494a.226.226,0,0,1,.219.225.218.218,0,0,1-.219.225H762.4v4.655a.227.227,0,0,1-.225.219.231.231,0,0,1-.226-.219v-4.655h-1.134a.218.218,0,0,1-.219-.225.226.226,0,0,1,.219-.225h1.134v-1.684a.226.226,0,0,1,.451,0V494Z" transform="translate(-753.134 -489.62)" fill="#8891b1"/>
        <path id="Path_2246" data-name="Path 2246" d="M853.95,461.344v2.811a.2.2,0,0,1-.186.219c-.126,0-.186-.093-.186-.219v-2.811a1.718,1.718,0,0,0-1.611-1.9c-1.359,0-1.962,1.187-1.89,2.4,0,.033-.007.172-.007.192v2.115c0,.126-.06.219-.186.219s-.186-.093-.186-.219v-9.236a.194.194,0,0,1,.186-.219.2.2,0,0,1,.186.219v5.225a2.212,2.212,0,0,1,1.843-1.134A2.143,2.143,0,0,1,853.95,461.344Z" transform="translate(-836.327 -454.7)" fill="#8891b1"/>
        <path id="Path_2247" data-name="Path 2247" d="M961.8,522.445a.247.247,0,0,1-.239.239h-4.4a2.221,2.221,0,0,0,2.082,2.069,2.064,2.064,0,0,0,1.817-.942.238.238,0,0,1,.192-.113.213.213,0,0,1,.219.219.206.206,0,0,1-.033.113,2.484,2.484,0,0,1-2.195,1.154,2.748,2.748,0,1,1,2.559-2.738Zm-.471-.212a2.082,2.082,0,0,0-4.164,0Z" transform="translate(-936.232 -515.39)" fill="#8891b1"/>
        <path id="Path_2248" data-name="Path 2248" d="M1079.446,521.306a.224.224,0,0,1-.212.239,2.259,2.259,0,0,0-1.883,2.48v2.108a.226.226,0,0,1-.451,0v-4.814a.226.226,0,0,1,.451,0v.981a2.366,2.366,0,0,1,1.85-1.2A.234.234,0,0,1,1079.446,521.306Z" transform="translate(-1048.462 -516.698)" fill="#8891b1"/>
        <path id="Path_2249" data-name="Path 2249" d="M1152.7,522.445a.247.247,0,0,1-.239.239h-4.4a2.221,2.221,0,0,0,2.082,2.069,2.064,2.064,0,0,0,1.817-.941.237.237,0,0,1,.192-.113.212.212,0,0,1,.219.219.206.206,0,0,1-.033.113,2.484,2.484,0,0,1-2.195,1.154,2.748,2.748,0,1,1,2.559-2.738Zm-.471-.212a2.082,2.082,0,0,0-4.164,0Z" transform="translate(-1114.475 -515.39)" fill="#8891b1"/>
        <path id="Path_2250" data-name="Path 2250" d="M1271.43,521.912v4.827a.226.226,0,0,1-.225.219.218.218,0,0,1-.225-.219v-.908a2.089,2.089,0,0,1-1.837,1.247,2.136,2.136,0,0,1-2.042-2.334v-2.825a.227.227,0,0,1,.226-.219.231.231,0,0,1,.225.219v2.825a1.708,1.708,0,0,0,1.6,1.9c1.485,0,1.837-1.386,1.837-2.917v-1.8a.226.226,0,0,1,.225-.219A.218.218,0,0,1,1271.43,521.912Z" transform="translate(-1226.051 -517.258)" fill="#8891b1"/>
        <path id="Path_2251" data-name="Path 2251" d="M1384.315,522.021v2.825a.226.226,0,0,1-.226.219.218.218,0,0,1-.225-.219v-2.825a1.69,1.69,0,0,0-1.6-1.876c-1.326,0-1.837,1.419-1.837,2.526v2.175a.227.227,0,0,1-.226.219.218.218,0,0,1-.225-.219v-2.825a1.679,1.679,0,0,0-1.578-1.876c-1.339,0-1.9,1.054-1.85,2.46v2.241a.225.225,0,0,1-.451,0v-4.827a.225.225,0,0,1,.451,0v.8a2.121,2.121,0,0,1,1.857-1.121,1.967,1.967,0,0,1,1.883,1.406,2.185,2.185,0,0,1,1.989-1.406A2.128,2.128,0,0,1,1384.315,522.021Z" transform="translate(-1327.824 -515.39)" fill="#8891b1"/>
      </g>
    </g>
  </g>
</svg>
