<?xml version="1.0" standalone="no"?>
<!DOCTYPE svg PUBLIC "-//W3C//DTD SVG 20010904//EN"
 "http://www.w3.org/TR/2001/REC-SVG-20010904/DTD/svg10.dtd">
<svg version="1.0" xmlns="http://www.w3.org/2000/svg"
 width="465.000000pt" height="108.000000pt" viewBox="0 0 465.000000 108.000000"
 preserveAspectRatio="xMidYMid meet">

<g transform="translate(0.000000,108.000000) scale(0.100000,-0.100000)"
fill="green" stroke="none">
<path d="M405 1072 c-215 -24 -365 -188 -365 -397 0 -84 24 -163 69 -229 17
-25 31 -47 31 -51 0 -3 -16 -20 -36 -37 -71 -62 -85 -143 -37 -207 34 -45 47
-56 105 -86 138 -73 401 -75 538 -5 154 79 184 205 71 302 l-41 35 35 53 c50
75 68 145 63 249 -5 102 -32 170 -97 243 -80 90 -219 144 -336 130z m-187
-732 l23 -19 -52 -50 c-51 -49 -52 -51 -46 -98 l5 -48 -34 38 c-50 54 -48 96
10 153 48 49 61 52 94 24z m529 -6 c37 -28 63 -72 63 -107 0 -13 -16 -41 -35
-63 l-35 -39 6 40 c7 47 -22 97 -73 130 -18 11 -32 22 -33 25 0 7 52 39 64 40
5 0 24 -11 43 -26z m-376 -54 c38 -8 77 -8 135 0 75 11 85 10 120 -8 79 -40
98 -92 51 -140 -15 -14 -28 -24 -29 -21 -2 2 -10 17 -18 34 -22 42 -73 73
-135 80 -59 8 -137 0 -170 -17 -34 -18 -75 -61 -75 -80 0 -10 -4 -18 -9 -18
-13 0 -61 59 -61 74 0 22 40 65 78 86 44 23 45 23 113 10z m181 -117 c23 -13
33 -27 33 -44 0 -74 -245 -84 -284 -11 -13 24 17 55 69 71 49 15 144 6 182
-16z"/>
<path d="M1520 891 c-103 -22 -189 -88 -241 -183 -32 -60 -34 -68 -34 -163 0
-89 3 -106 26 -150 35 -66 101 -130 169 -163 48 -24 67 -27 150 -27 114 0 163
18 240 91 66 62 102 138 108 229 5 84 -7 132 -50 205 -72 119 -234 190 -368
161z m198 -99 c160 -78 200 -290 81 -426 -55 -62 -108 -88 -192 -94 -196 -14
-341 170 -283 361 48 161 236 237 394 159z"/>
<path d="M2984 875 c-65 -34 -87 -66 -92 -137 -6 -87 19 -119 144 -186 111
-58 123 -67 147 -102 33 -48 15 -130 -37 -164 -63 -40 -177 -5 -206 63 -14 35
-20 37 -61 15 l-30 -15 24 -42 c14 -24 45 -55 73 -72 43 -27 56 -30 129 -30
71 0 86 3 122 27 52 34 75 83 74 158 0 101 -43 152 -186 221 -46 22 -92 50
-102 61 -24 27 -22 93 5 120 44 45 140 39 182 -10 25 -30 25 -30 57 -13 l33
16 -32 39 c-62 76 -156 95 -244 51z"/>
<path d="M4356 893 c-35 -9 -93 -53 -106 -81 -26 -57 -29 -82 -14 -132 17 -58
42 -79 159 -138 94 -47 132 -81 141 -128 9 -48 -2 -83 -38 -116 -59 -55 -170
-31 -218 48 -25 39 -22 39 -61 19 -28 -15 -29 -17 -14 -44 42 -82 126 -126
229 -119 114 7 183 80 180 193 -3 95 -51 150 -189 216 -46 22 -93 51 -104 66
-81 102 90 204 181 107 30 -32 32 -32 60 -18 15 8 28 20 28 26 0 21 -80 87
-117 97 -39 11 -83 12 -117 4z"/>
<path d="M2306 788 c-24 -51 -70 -147 -101 -213 -97 -202 -165 -347 -165 -351
0 -2 16 -4 35 -4 33 0 36 3 64 63 16 34 77 161 136 282 59 121 115 239 125
262 18 41 18 41 -3 47 -42 11 -47 6 -91 -86z"/>
<path d="M3911 718 c-156 -324 -223 -463 -232 -480 -9 -16 -5 -18 31 -18 33 0
42 4 49 23 5 12 42 90 81 172 254 529 229 465 184 465 l-35 0 -78 -162z"/>
<path d="M3490 866 c0 -1 39 -84 86 -182 47 -98 93 -196 101 -216 9 -21 19
-38 23 -38 3 0 13 15 22 33 15 31 14 34 -27 120 -24 49 -64 133 -89 188 -46
97 -48 99 -82 99 -18 0 -34 -2 -34 -4z"/>
<path d="M2418 730 l-17 -41 68 -142 c37 -78 87 -184 111 -234 l44 -93 38 0
38 0 -43 88 c-24 48 -59 120 -78 161 -19 41 -59 125 -89 188 l-55 113 -17 -40z"/>
</g>
</svg>
