<svg id="optimism" xmlns="http://www.w3.org/2000/svg" xmlns:xlink="http://www.w3.org/1999/xlink" width="160" height="21.245" viewBox="0 0 160 21.245">
  <defs>
    <clipPath id="clip-path">
      <rect id="Rectangle_2650" data-name="Rectangle 2650" width="160" height="21.245" fill="none"/>
    </clipPath>
  </defs>
  <g id="Group_4338" data-name="Group 4338" clip-path="url(#clip-path)">
    <path id="Path_2197" data-name="Path 2197" d="M8.075,21.324a9.64,9.64,0,0,1-5.832-1.659A5.647,5.647,0,0,1,0,14.867a10.626,10.626,0,0,1,.149-1.6q.39-2.132,1.107-5.123Q3.29,0,11.755,0a10.533,10.533,0,0,1,4.127.77A6.267,6.267,0,0,1,18.753,3.02,6,6,0,0,1,19.8,6.575a10.379,10.379,0,0,1-.15,1.569q-.448,2.636-1.076,5.123a10.843,10.843,0,0,1-3.62,6.072,10.97,10.97,0,0,1-6.879,1.984m.419-4.265a4.277,4.277,0,0,0,2.841-.978,5.44,5.44,0,0,0,1.7-2.991q.688-2.784,1.047-4.857a6.709,6.709,0,0,0,.119-1.273q0-2.695-2.841-2.7a4.4,4.4,0,0,0-2.871.978A5.538,5.538,0,0,0,6.819,8.233q-.539,1.985-1.077,4.857a6.25,6.25,0,0,0-.119,1.243q0,2.725,2.871,2.725" fill="#ff0420"/>
    <path id="Path_2198" data-name="Path 2198" d="M21.455,21.009a.638.638,0,0,1-.509-.207.7.7,0,0,1-.091-.533L24.984,1.018a.845.845,0,0,1,.328-.533.916.916,0,0,1,.568-.207h7.956A9.321,9.321,0,0,1,39.16,1.64a4.452,4.452,0,0,1,2.034,3.94,7.038,7.038,0,0,1-.179,1.54,8.008,8.008,0,0,1-3.022,5.036,10.3,10.3,0,0,1-6.16,1.628H27.8l-1.376,6.487a.848.848,0,0,1-.328.533.922.922,0,0,1-.568.207ZM32.042,9.7a3.587,3.587,0,0,0,2.184-.681A3.2,3.2,0,0,0,35.482,7.06a5.154,5.154,0,0,0,.09-.889,1.637,1.637,0,0,0-.509-1.3,2.526,2.526,0,0,0-1.735-.473H29.739L28.6,9.7Z" transform="translate(1.379 0.018)" fill="#ff0420"/>
    <path id="Path_2199" data-name="Path 2199" d="M46.454,21.009a.591.591,0,0,1-.628-.74l3.32-15.341H43.821a.638.638,0,0,1-.509-.208.707.707,0,0,1-.09-.533l.689-3.169A.845.845,0,0,1,44.24.485a.913.913,0,0,1,.568-.207H60.9a.634.634,0,0,1,.509.207.63.63,0,0,1,.119.355.547.547,0,0,1-.03.178L60.81,4.187a.84.84,0,0,1-.329.533.836.836,0,0,1-.568.208H54.618L51.3,20.269a.848.848,0,0,1-.328.533.922.922,0,0,1-.568.207Z" transform="translate(2.859 0.018)" fill="#ff0420"/>
    <path id="Path_2200" data-name="Path 2200" d="M61.146,21.009a.591.591,0,0,1-.628-.74L64.675,1.018A.851.851,0,0,1,65,.485a.913.913,0,0,1,.568-.207H69.61a.634.634,0,0,1,.509.207.63.63,0,0,1,.119.355.547.547,0,0,1-.03.178L66.081,20.269a.854.854,0,0,1-.329.533.92.92,0,0,1-.568.207Z" transform="translate(4.004 0.018)" fill="#ff0420"/>
    <path id="Path_2201" data-name="Path 2201" d="M71.827,21.009a.638.638,0,0,1-.509-.207.606.606,0,0,1-.119-.533L75.326,1.018a.842.842,0,0,1,.329-.533.953.953,0,0,1,.6-.207h3.229a.881.881,0,0,1,.928.651l3.26,9.329L90.938.929a1.772,1.772,0,0,1,.419-.445,1.224,1.224,0,0,1,.718-.207h3.26a.634.634,0,0,1,.509.207.63.63,0,0,1,.119.355.547.547,0,0,1-.03.178L91.806,20.269a.854.854,0,0,1-.329.533.92.92,0,0,1-.568.207H87.29a.638.638,0,0,1-.509-.207.7.7,0,0,1-.09-.533L89.024,9.34l-4.576,6.012a3.192,3.192,0,0,1-.568.5,1.114,1.114,0,0,1-.628.177H81.7a.879.879,0,0,1-.867-.68L78.706,9.074,76.313,20.269a.854.854,0,0,1-.329.533.92.92,0,0,1-.568.207Z" transform="translate(4.711 0.018)" fill="#ff0420"/>
    <path id="Path_2202" data-name="Path 2202" d="M96.588,21.009a.591.591,0,0,1-.628-.74l4.157-19.251a.847.847,0,0,1,.329-.533.913.913,0,0,1,.568-.207h4.038a.634.634,0,0,1,.509.207.63.63,0,0,1,.119.355.547.547,0,0,1-.03.178l-4.127,19.251a.845.845,0,0,1-.329.533.92.92,0,0,1-.568.207Z" transform="translate(6.349 0.018)" fill="#ff0420"/>
    <path id="Path_2203" data-name="Path 2203" d="M114.671,21.324a12.8,12.8,0,0,1-4.516-.711,6.5,6.5,0,0,1-2.812-1.895,4.174,4.174,0,0,1-.928-2.637,6.3,6.3,0,0,1,.06-.71.888.888,0,0,1,.24-.445.719.719,0,0,1,.479-.178h3.828a.986.986,0,0,1,.538.118,1.378,1.378,0,0,1,.419.415,2.219,2.219,0,0,0,.957,1.274,3.872,3.872,0,0,0,2.123.5,6.086,6.086,0,0,0,2.752-.533,2.178,2.178,0,0,0,1.256-1.451,1.543,1.543,0,0,0,.03-.355q0-.74-.926-1.156a19.5,19.5,0,0,0-3.41-1.036,10.189,10.189,0,0,1-4.4-1.866,4.149,4.149,0,0,1-1.495-3.317,6.154,6.154,0,0,1,.179-1.451,6.731,6.731,0,0,1,2.961-4.324A11.041,11.041,0,0,1,118.171,0a9.685,9.685,0,0,1,4.038.8,6.985,6.985,0,0,1,2.722,2.044,3.852,3.852,0,0,1,.986,2.428,2.877,2.877,0,0,1-.03.5.794.794,0,0,1-.269.444.613.613,0,0,1-.449.178h-4.008a.9.9,0,0,1-.9-.5,1.467,1.467,0,0,0-.719-1.156,3.1,3.1,0,0,0-1.794-.473,4.522,4.522,0,0,0-2.184.473,2.069,2.069,0,0,0-1.046,1.392,1.977,1.977,0,0,0-.031.385,1.373,1.373,0,0,0,.838,1.185,13.88,13.88,0,0,0,3.02.918,11.5,11.5,0,0,1,4.876,1.866,3.893,3.893,0,0,1,1.554,3.228,6.806,6.806,0,0,1-.179,1.481,6.887,6.887,0,0,1-3.2,4.591,12.793,12.793,0,0,1-6.729,1.54" transform="translate(7.042)" fill="#ff0420"/>
    <path id="Path_2204" data-name="Path 2204" d="M127.4,21.009a.638.638,0,0,1-.509-.207.606.606,0,0,1-.119-.533L130.9,1.018a.842.842,0,0,1,.329-.533.953.953,0,0,1,.6-.207h3.229a.881.881,0,0,1,.928.651l3.26,9.329L146.513.929a1.772,1.772,0,0,1,.419-.445,1.224,1.224,0,0,1,.718-.207h3.26a.634.634,0,0,1,.509.207.63.63,0,0,1,.119.355.548.548,0,0,1-.03.178l-4.127,19.251a.854.854,0,0,1-.329.533.92.92,0,0,1-.568.207h-3.619a.638.638,0,0,1-.509-.207.7.7,0,0,1-.09-.533L144.6,9.34l-4.576,6.012a3.193,3.193,0,0,1-.568.5,1.114,1.114,0,0,1-.628.177h-1.556a.878.878,0,0,1-.867-.68l-2.124-6.279-2.392,11.195a.854.854,0,0,1-.329.533.92.92,0,0,1-.568.207Z" transform="translate(8.388 0.018)" fill="#ff0420"/>
  </g>
</svg>
