<svg id="TrustWallet" xmlns="http://www.w3.org/2000/svg" xmlns:xlink="http://www.w3.org/1999/xlink" width="55" height="36" viewBox="0 0 55 36">
  <defs>
    <clipPath id="clip-path">
      <rect id="Rectangle_2794" data-name="Rectangle 2794" width="55" height="36" fill="none"/>
    </clipPath>
  </defs>
  <path id="Path_2228" data-name="Path 2228" d="M0,120.313v1.279H2.167v5.5H3.734v-5.5H5.9v-1.279Z" transform="translate(0 -91.172)" fill="#3375bb"/>
  <g id="Group_4431" data-name="Group 4431" clip-path="url(#clip-path)">
    <path id="Path_2229" data-name="Path 2229" d="M26.019,127.238a1.683,1.683,0,0,1,.726-.572,2.74,2.74,0,0,1,1.064-.194v1.4q-.251-.02-.339-.019a1.371,1.371,0,0,0-1.016.368,1.453,1.453,0,0,0-.368,1.085v2.461H24.578V126.55h1.441Z" transform="translate(-18.634 -95.84)" fill="#3375bb"/>
    <path id="Path_2230" data-name="Path 2230" d="M44.556,126.793v5.212H43.124v-.62a2.056,2.056,0,0,1-.716.523,2.3,2.3,0,0,1-.9.174,2.215,2.215,0,0,1-1.625-.591,2.358,2.358,0,0,1-.6-1.754v-2.945h1.509v2.722q0,1.259,1.054,1.259a1.141,1.141,0,0,0,.871-.349,1.512,1.512,0,0,0,.329-1.056v-2.577Z" transform="translate(-29.784 -96.083)" fill="#3375bb"/>
    <path id="Path_2231" data-name="Path 2231" d="M64.639,131.84a5.207,5.207,0,0,1-1.267-.155,3.4,3.4,0,0,1-.987-.407l.5-1.085a3.276,3.276,0,0,0,.842.368,3.644,3.644,0,0,0,.967.136q.958,0,.958-.475a.336.336,0,0,0-.261-.32,3.846,3.846,0,0,0-.8-.165,7.775,7.775,0,0,1-1.054-.223,1.672,1.672,0,0,1-.726-.446,1.282,1.282,0,0,1-.3-.911,1.424,1.424,0,0,1,.281-.872,1.854,1.854,0,0,1,.832-.6,3.586,3.586,0,0,1,1.3-.213,4.807,4.807,0,0,1,1.093.126,2.978,2.978,0,0,1,.909.329l-.5,1.075a3,3,0,0,0-1.5-.388,1.522,1.522,0,0,0-.726.136.4.4,0,0,0-.242.349.346.346,0,0,0,.261.339,4.633,4.633,0,0,0,.832.184,8.151,8.151,0,0,1,1.045.233,1.531,1.531,0,0,1,.706.436,1.251,1.251,0,0,1,.3.891,1.378,1.378,0,0,1-.29.862,1.883,1.883,0,0,1-.851.591,3.805,3.805,0,0,1-1.316.2" transform="translate(-47.298 -95.84)" fill="#3375bb"/>
    <path id="Path_2232" data-name="Path 2232" d="M84.731,128.146a1.612,1.612,0,0,1-.551.252,2.866,2.866,0,0,1-.677.077A2.043,2.043,0,0,1,82.061,128a1.829,1.829,0,0,1-.5-1.4v-2.141h-.8V123.3h.8v-1.269h1.509V123.3h1.3v1.163h-1.3v2.122a.745.745,0,0,0,.164.513.653.653,0,0,0,.484.174.969.969,0,0,0,.609-.194Z" transform="translate(-61.226 -92.476)" fill="#3375bb"/>
    <path id="Path_2233" data-name="Path 2233" d="M116.051,120.313l-2.215,6.782h-1.683l-1.49-4.592-1.538,4.592h-1.674l-2.225-6.782h1.625l1.528,4.767,1.6-4.767h1.451l1.548,4.805,1.577-4.805Z" transform="translate(-79.779 -91.172)" fill="#3375bb"/>
    <path id="Path_2234" data-name="Path 2234" d="M150.2,126.473a2.69,2.69,0,0,1,1.857.581,2.192,2.192,0,0,1,.648,1.734v2.974h-1.412v-.649a1.681,1.681,0,0,1-1.586.727,2.493,2.493,0,0,1-1.045-.2,1.557,1.557,0,0,1-.667-.562,1.465,1.465,0,0,1-.232-.814,1.363,1.363,0,0,1,.542-1.143A2.8,2.8,0,0,1,150,128.7h1.2a.949.949,0,0,0-.3-.756,1.3,1.3,0,0,0-.9-.271,2.577,2.577,0,0,0-.822.136,2.093,2.093,0,0,0-.677.349l-.542-1.056a3.272,3.272,0,0,1,1.016-.465,4.613,4.613,0,0,1,1.229-.165m-.116,4.35a1.34,1.34,0,0,0,.687-.174,1,1,0,0,0,.426-.533v-.533h-1.035q-.929,0-.929.61a.561.561,0,0,0,.222.465,1.069,1.069,0,0,0,.629.165" transform="translate(-112.028 -95.84)" fill="#3375bb"/>
    <rect id="Rectangle_2792" data-name="Rectangle 2792" width="1.509" height="7.189" transform="translate(41.463 28.734)" fill="#3375bb"/>
    <rect id="Rectangle_2793" data-name="Rectangle 2793" width="1.509" height="7.189" transform="translate(43.792 28.734)" fill="#3375bb"/>
    <path id="Path_2235" data-name="Path 2235" d="M194.6,129.176q0,.029-.029.407h-3.937a1.23,1.23,0,0,0,.5.765,1.665,1.665,0,0,0,.987.281,2.029,2.029,0,0,0,.716-.116,1.8,1.8,0,0,0,.59-.388l.8.872a2.7,2.7,0,0,1-2.148.843,3.435,3.435,0,0,1-1.557-.339,2.553,2.553,0,0,1-1.045-.959,2.634,2.634,0,0,1-.368-1.385,2.67,2.67,0,0,1,.358-1.376,2.542,2.542,0,0,1,1-.959,3.071,3.071,0,0,1,2.805-.019,2.36,2.36,0,0,1,.967.949,2.763,2.763,0,0,1,.358,1.424m-2.7-1.56a1.3,1.3,0,0,0-.861.291,1.238,1.238,0,0,0-.426.794h2.563a1.23,1.23,0,0,0-.426-.785,1.258,1.258,0,0,0-.851-.3" transform="translate(-143.378 -95.84)" fill="#3375bb"/>
    <path id="Path_2236" data-name="Path 2236" d="M214.963,128.146a1.616,1.616,0,0,1-.551.252,2.867,2.867,0,0,1-.677.077,2.043,2.043,0,0,1-1.441-.475,1.828,1.828,0,0,1-.5-1.4v-2.141h-.8V123.3h.8v-1.269H213.3V123.3h1.3v1.163h-1.3v2.122a.744.744,0,0,0,.164.513.653.653,0,0,0,.484.174.97.97,0,0,0,.609-.194Z" transform="translate(-159.963 -92.476)" fill="#3375bb"/>
    <path id="Path_2237" data-name="Path 2237" d="M83.721,22.8a1.086,1.086,0,0,1-.634-.2,29.257,29.257,0,0,0-3.344-2.042c-4.264-2.317-5.5-3.57-5.7-16.722a1.089,1.089,0,0,1,1.088-1.106h.194a11.459,11.459,0,0,0,7.7-2.476,1.087,1.087,0,0,1,1.4,0A11.473,11.473,0,0,0,92.127,2.73h.2a1.089,1.089,0,0,1,1.088,1.106c-.2,13.149-1.437,14.4-5.708,16.721A29.239,29.239,0,0,0,84.355,22.6a1.084,1.084,0,0,1-.634.2M76.238,4.9c.118,5.673.461,8.773,1.156,10.572.65,1.682,1.622,2.211,3.386,3.169a34.025,34.025,0,0,1,2.94,1.746,33.976,33.976,0,0,1,2.945-1.747c1.766-.959,2.739-1.487,3.39-3.17.7-1.8,1.041-4.9,1.159-10.569a13.5,13.5,0,0,1-7.495-2.432A13.484,13.484,0,0,1,76.238,4.9" transform="translate(-56.136 0)" fill="#3375bb"/>
  </g>
</svg>
