<svg id="walletconnect" xmlns="http://www.w3.org/2000/svg" xmlns:xlink="http://www.w3.org/1999/xlink" width="58" height="36" viewBox="0 0 58 36">
  <defs>
    <clipPath id="clip-path">
      <rect id="Rectangle_2791" data-name="Rectangle 2791" width="58" height="36" fill="none"/>
    </clipPath>
  </defs>
  <g id="Group_4430" data-name="Group 4430" clip-path="url(#clip-path)">
    <path id="Path_2227" data-name="Path 2227" d="M11.874,7.034a24.367,24.367,0,0,1,34.252,0l1.138,1.129a1.194,1.194,0,0,1,0,1.7L43.37,13.722a.609.609,0,0,1-.856,0l-1.566-1.553a17,17,0,0,0-23.9,0l-1.678,1.663a.609.609,0,0,1-.856,0L10.624,9.971a1.193,1.193,0,0,1,0-1.7Zm42.306,7.985,3.466,3.436a1.194,1.194,0,0,1,0,1.7l-15.627,15.5a1.219,1.219,0,0,1-1.713,0l-11.091-11a.3.3,0,0,0-.428,0l-11.091,11a1.219,1.219,0,0,1-1.713,0L.354,20.153a1.194,1.194,0,0,1,0-1.7L3.82,15.019a1.219,1.219,0,0,1,1.713,0l11.091,11a.3.3,0,0,0,.428,0l11.091-11a1.219,1.219,0,0,1,1.713,0l11.091,11a.3.3,0,0,0,.428,0l11.091-11A1.218,1.218,0,0,1,54.179,15.019Z" transform="translate(0)" fill="#3396ff"/>
  </g>
</svg>
